<?xml version="1.0" encoding="UTF-8" standalone="no"?>
<svg
   xmlns:dc="http://purl.org/dc/elements/1.1/"
   xmlns:cc="http://creativecommons.org/ns#"
   xmlns:rdf="http://www.w3.org/1999/02/22-rdf-syntax-ns#"
   xmlns:svg="http://www.w3.org/2000/svg"
   xmlns="http://www.w3.org/2000/svg"
   xmlns:xlink="http://www.w3.org/1999/xlink"
   xmlns:sodipodi="http://sodipodi.sourceforge.net/DTD/sodipodi-0.dtd"
   xmlns:inkscape="http://www.inkscape.org/namespaces/inkscape"
   width="8"
   height="8"
   viewBox="0 0 8 8"
   id="svg2"
   version="1.1"
   inkscape:version="0.91 r13725"
   sodipodi:docname="loading-default.svg">
  <metadata
     id="metadata10">
    <rdf:RDF>
      <cc:Work
         rdf:about="">
        <dc:format>image/svg+xml</dc:format>
        <dc:type
           rdf:resource="http://purl.org/dc/dcmitype/StillImage" />
        <dc:title></dc:title>
      </cc:Work>
    </rdf:RDF>
  </metadata>
  <defs
     id="defs8">
    <linearGradient
       inkscape:collect="always"
       id="linearGradient4157">
      <stop
         style="stop-color:#195718;stop-opacity:1;"
         offset="0"
         id="stop4159" />
      <stop
         style="stop-color:#195718;stop-opacity:0;"
         offset="1"
         id="stop4161" />
    </linearGradient>
    <linearGradient
       inkscape:collect="always"
       xlink:href="#linearGradient4157"
       id="linearGradient4163"
       x1="6.237288"
       y1="1.3220339"
       x2="8.4671192"
       y2="4.5084743"
       gradientUnits="userSpaceOnUse" />
  </defs>
  <sodipodi:namedview
     pagecolor="#ffffff"
     bordercolor="#666666"
     borderopacity="1"
     objecttolerance="10"
     gridtolerance="10"
     guidetolerance="10"
     inkscape:pageopacity="0"
     inkscape:pageshadow="2"
     inkscape:window-width="1855"
     inkscape:window-height="1056"
     id="namedview6"
     showgrid="false"
     inkscape:zoom="29.5"
     inkscape:cx="-0.033898305"
     inkscape:cy="4"
     inkscape:window-x="65"
     inkscape:window-y="24"
     inkscape:window-maximized="1"
     inkscape:current-layer="svg2" />
  <path
     d="M 4,0 C 1.8,0 0,1.8 0,4 0,6.2 1.8,8 4,8 5.1,8 6.12,7.57 6.84,6.84 L 6.12,6.12 C 5.58,6.66 4.83,7 3.99,7 2.33,7 0.99,5.66 0.99,4 0.99,2.34 2.33,1 3.99,1 4.82,1 5.54,1.36 6.08,1.91 6.8,1.19 6.4380734,1.569758 6.8,1.19 6.08,0.47 5.09,0 3.99,0 Z"
     id="path4"
     inkscape:connector-curvature="0"
     sodipodi:nodetypes="cssccssscccc"
     style="fill:url(#linearGradient4163);fill-opacity:1" />
</svg>
