<?xml version="1.0" encoding="UTF-8" standalone="no"?>
<svg
   xmlns:dc="http://purl.org/dc/elements/1.1/"
   xmlns:cc="http://creativecommons.org/ns#"
   xmlns:rdf="http://www.w3.org/1999/02/22-rdf-syntax-ns#"
   xmlns:svg="http://www.w3.org/2000/svg"
   xmlns="http://www.w3.org/2000/svg"
   xmlns:sodipodi="http://sodipodi.sourceforge.net/DTD/sodipodi-0.dtd"
   xmlns:inkscape="http://www.inkscape.org/namespaces/inkscape"
   width="8"
   height="8"
   viewBox="0 0 8 8"
   id="svg2"
   version="1.1"
   inkscape:version="0.91 r13725"
   sodipodi:docname="warning-default.svg">
  <metadata
     id="metadata10">
    <rdf:RDF>
      <cc:Work
         rdf:about="">
        <dc:format>image/svg+xml</dc:format>
        <dc:type
           rdf:resource="http://purl.org/dc/dcmitype/StillImage" />
        <dc:title />
      </cc:Work>
    </rdf:RDF>
  </metadata>
  <defs
     id="defs8" />
  <sodipodi:namedview
     pagecolor="#ffffff"
     bordercolor="#666666"
     borderopacity="1"
     objecttolerance="10"
     gridtolerance="10"
     guidetolerance="10"
     inkscape:pageopacity="0"
     inkscape:pageshadow="2"
     inkscape:window-width="1855"
     inkscape:window-height="1056"
     id="namedview6"
     showgrid="false"
     inkscape:zoom="29.5"
     inkscape:cx="-5.5423729"
     inkscape:cy="4"
     inkscape:window-x="65"
     inkscape:window-y="24"
     inkscape:window-maximized="1"
     inkscape:current-layer="svg2" />
  <path
     d="M 3.5410075,0 C 3.4722783,0 3.4264588,0.04 3.3920942,0.09 L 0.02436459,6.9 C 0.00145487,6.95 -0.01,7.03 -0.01,7.09 l 0,0.81 c 0,0.05 0.04581945,0.09 0.10309376,0.09 l 7.80076154,0 c 0.057275,0 0.1030939,-0.04 0.1030939,-0.09 l 0,-0.81 c 0,-0.05 -0.011455,-0.14 -0.034365,-0.19 L 4.5948549,0.09 C 4.5719452,0.04 4.5146708,0 4.4459417,0 L 3.5180978,0 Z m -0.1030937,3 1.1454863,0 0,2 -1.1454863,0 0,-2 z m 0,3 1.1454863,0 0,1 -1.1454863,0 0,-1 z"
     id="path4"
     inkscape:connector-curvature="0"
     style="fill:#ff0000;fill-opacity:1" />
</svg>
